<?xml version="1.0" encoding="UTF-8" standalone="no"?>
<!-- Created with Inkscape (http://www.inkscape.org/) -->

<svg
   xmlns:dc="http://purl.org/dc/elements/1.1/"
   xmlns:cc="http://creativecommons.org/ns#"
   xmlns:rdf="http://www.w3.org/1999/02/22-rdf-syntax-ns#"
   xmlns:svg="http://www.w3.org/2000/svg"
   xmlns="http://www.w3.org/2000/svg"
   xmlns:sodipodi="http://sodipodi.sourceforge.net/DTD/sodipodi-0.dtd"
   xmlns:inkscape="http://www.inkscape.org/namespaces/inkscape"
   width="943"
   height="319.85712"
   viewBox="0 0 249.50209 84.628859"
   version="1.1"
   id="svg8"
   inkscape:version="0.92.3 (unknown)"
   sodipodi:docname="banner.svg">
  <defs
     id="defs2" />
  <sodipodi:namedview
     id="base"
     pagecolor="#ffffff"
     bordercolor="#666666"
     borderopacity="1.0"
     inkscape:pageopacity="0.0"
     inkscape:pageshadow="2"
     inkscape:zoom="0.49497475"
     inkscape:cx="342.09145"
     inkscape:cy="154.46812"
     inkscape:document-units="mm"
     inkscape:current-layer="layer1"
     showgrid="false"
     fit-margin-top="0"
     fit-margin-left="0"
     fit-margin-right="0"
     fit-margin-bottom="0"
     showguides="true"
     inkscape:guide-bbox="true"
     inkscape:window-width="1627"
     inkscape:window-height="1026"
     inkscape:window-x="53"
     inkscape:window-y="24"
     inkscape:window-maximized="1"
     units="px" />
  <metadata
     id="metadata5">
    <rdf:RDF>
      <cc:Work
         rdf:about="">
        <dc:format>image/svg+xml</dc:format>
        <dc:type
           rdf:resource="http://purl.org/dc/dcmitype/StillImage" />
        <dc:title></dc:title>
      </cc:Work>
    </rdf:RDF>
  </metadata>
  <g
     inkscape:label="Layer 1"
     inkscape:groupmode="layer"
     id="layer1"
     transform="translate(213.73831,-129.23978)">
    <rect
       style="opacity:1;fill:#333;fill-opacity:1;stroke:none;stroke-width:0.69041216;stroke-linecap:round;stroke-miterlimit:4;stroke-dasharray:none;stroke-dashoffset:0;stroke-opacity:1"
       id="rect815"
       width="249.50209"
       height="84.62886"
       x="-213.73831"
       y="129.23978"
       ry="0.88896513" />
    <g
       id="g1143"
       transform="matrix(0.60872265,0,0,0.60872265,-35.345628,63.768349)">
      <g
         style="fill:white"
         transform="matrix(0.07624496,0,0,0.07624496,-107.64035,147.69694)"
         id="g887">
        <path
           inkscape:connector-curvature="0"
           style="fill:white"
           d="m 476.984,476.984 h -435.44 v -435.44 h 435.44 z m -419.44,-16 h 403.44 v -403.44 h -403.44 z"
           id="path817" />
        <rect
           y="0"
           x="412.90399"
           style="fill:white"
           width="99.096001"
           height="99.096001"
           id="rect819" />
        <rect
           x="0"
           y="412.90399"
           style="fill:white"
           width="99.096001"
           height="99.096001"
           id="rect821" />
        <rect
           y="0"
           x="0"
           style="fill:white"
           width="99.096001"
           height="99.096001"
           id="rect823" />
        <rect
           style="fill:white"
           x="412.90399"
           y="412.88"
           width="99.096001"
           height="99.096001"
           id="rect825" />
        <path
           inkscape:connector-curvature="0"
           style="fill:white"
           d="m 387.12,386.672 h -57.4 l -22.824,-59.36 h -104.472 l -21.568,59.36 h -55.976 l 101.792,-261.344 h 55.8 z m -97.16,-103.4 -36.008,-96.976 -35.296,96.976 z"
           id="path827" />
        <g
           style="fill:white"
           id="g829" />
        <g
           style="fill:white"
           id="g831" />
        <g
           style="fill:white"
           id="g833" />
        <g
           style="fill:white"
           id="g835" />
        <g
           style="fill:white"
           id="g837" />
        <g
           style="fill:white"
           id="g839" />
        <g
           style="fill:white"
           id="g841" />
        <g
           style="fill:white"
           id="g843" />
        <g
           style="fill:white"
           id="g845" />
        <g
           style="fill:white"
           id="g847" />
        <g
           style="fill:white"
           id="g849" />
        <g
           style="fill:white"
           id="g851" />
        <g
           style="fill:white"
           id="g853" />
        <g
           style="fill:white"
           id="g855" />
        <g
           style="fill:white"
           id="g857" />
      </g>
      <g
         transform="matrix(0.56622863,0,0,0.56622863,36.010519,161.70166)"
         id="text891"
         style="font-style:normal;font-variant:normal;font-weight:normal;font-stretch:normal;font-size:16.98415184px;line-height:1.25;font-family:comforta;-inkscape-font-specification:comforta;letter-spacing:0px;word-spacing:0px;fill:white;fill-opacity:1;stroke:none;stroke-width:0.42460382"
         aria-label="ADVANCED BLOG">
        <path
           inkscape:connector-curvature="0"
           id="path961"
           style="font-style:normal;font-variant:normal;font-weight:normal;font-stretch:normal;font-family:UBUNTU;-inkscape-font-specification:UBUNTU;fill:white;stroke-width:0.42460382"
           d="m -277.69535,65.990883 q -0.28873,-0.764287 -0.5435,-1.494605 -0.25476,-0.747303 -0.52651,-1.51159 h -5.33302 l -1.07,3.006195 h -1.7154 q 0.67937,-1.868257 1.27381,-3.447783 0.59445,-1.59651 1.15492,-3.023179 0.57746,-1.426669 1.13794,-2.717464 0.56048,-1.30778 1.17191,-2.581591 h 1.51159 q 0.61143,1.273811 1.1719,2.581591 0.56048,1.290795 1.12096,2.717464 0.57746,1.426669 1.1719,3.023179 0.59445,1.579526 1.27382,3.447783 z m -1.54556,-4.364927 q -0.54349,-1.477621 -1.08699,-2.853338 -0.52651,-1.3927 -1.10397,-2.666511 -0.59444,1.273811 -1.13794,2.666511 -0.5265,1.375717 -1.05301,2.853338 z" />
        <path
           inkscape:connector-curvature="0"
           id="path963"
           style="font-style:normal;font-variant:normal;font-weight:normal;font-stretch:normal;font-family:UBUNTU;-inkscape-font-specification:UBUNTU;fill:white;stroke-width:0.42460382"
           d="m -264.64967,60.097382 q 0,1.528574 -0.47555,2.666512 -0.47556,1.120954 -1.34175,1.868257 -0.86619,0.730318 -2.07207,1.10397 -1.20587,0.356667 -2.64953,0.356667 -0.71333,0 -1.57952,-0.06794 -0.84921,-0.05095 -1.54556,-0.220794 v -11.41335 q 0.69635,-0.169841 1.54556,-0.220794 0.86619,-0.06794 1.57952,-0.06794 1.44366,0 2.64953,0.373651 1.20588,0.356667 2.07207,1.10397 0.86619,0.730318 1.34175,1.868256 0.47555,1.120955 0.47555,2.649528 z m -6.40302,4.551753 q 2.34381,0 3.49873,-1.188891 1.15492,-1.205875 1.15492,-3.362862 0,-2.156987 -1.15492,-3.345878 -1.15492,-1.205875 -3.49873,-1.205875 -0.69635,0 -1.08699,0.01699 -0.37365,0.01698 -0.52651,0.03397 v 9.0016 q 0.15286,0.01699 0.52651,0.03397 0.39064,0.01698 1.08699,0.01698 z" />
        <path
           inkscape:connector-curvature="0"
           id="path965"
           style="font-style:normal;font-variant:normal;font-weight:normal;font-stretch:normal;font-family:UBUNTU;-inkscape-font-specification:UBUNTU;fill:white;stroke-width:0.42460382"
           d="m -252.99323,54.220866 q -0.6454,1.868256 -1.23985,3.464767 -0.57746,1.579526 -1.13793,3.006194 -0.56048,1.426669 -1.12096,2.734449 -0.54349,1.290795 -1.12095,2.564607 h -1.54556 q -0.57746,-1.273812 -1.13794,-2.564607 -0.54349,-1.30778 -1.12095,-2.734449 -0.56048,-1.426668 -1.15492,-3.006194 -0.59445,-1.596511 -1.22286,-3.464767 h 1.8173 q 0.91715,2.683496 1.80032,5.163182 0.88318,2.479686 1.81731,4.653657 0.93412,-2.156987 1.8173,-4.636673 0.88318,-2.49667 1.78334,-5.180166 z" />
        <path
           inkscape:connector-curvature="0"
           id="path967"
           style="font-style:normal;font-variant:normal;font-weight:normal;font-stretch:normal;font-family:UBUNTU;-inkscape-font-specification:UBUNTU;fill:white;stroke-width:0.42460382"
           d="m -244.55635,65.990883 q -0.28873,-0.764287 -0.5435,-1.494605 -0.25476,-0.747303 -0.52651,-1.51159 h -5.33302 l -1.07,3.006195 h -1.7154 q 0.67937,-1.868257 1.27381,-3.447783 0.59445,-1.59651 1.15492,-3.023179 0.57746,-1.426669 1.13794,-2.717464 0.56048,-1.30778 1.17191,-2.581591 h 1.51159 q 0.61143,1.273811 1.1719,2.581591 0.56048,1.290795 1.12096,2.717464 0.57746,1.426669 1.1719,3.023179 0.59445,1.579526 1.27382,3.447783 z m -1.54556,-4.364927 q -0.54349,-1.477621 -1.08699,-2.853338 -0.52651,-1.3927 -1.10397,-2.666511 -0.59444,1.273811 -1.13794,2.666511 -0.5265,1.375717 -1.05301,2.853338 z" />
        <path
           inkscape:connector-curvature="0"
           id="path969"
           style="font-style:normal;font-variant:normal;font-weight:normal;font-stretch:normal;font-family:UBUNTU;-inkscape-font-specification:UBUNTU;fill:white;stroke-width:0.42460382"
           d="m -233.10718,65.990883 q -0.37365,-0.628414 -0.86619,-1.409685 -0.47556,-0.781271 -1.03603,-1.613494 -0.56048,-0.849208 -1.17191,-1.715399 -0.59445,-0.866192 -1.18889,-1.664447 -0.59445,-0.81524 -1.15492,-1.528574 -0.56048,-0.713334 -1.03604,-1.256827 v 9.188426 h -1.61349 v -11.770017 h 1.30778 q 0.79825,0.849207 1.69841,1.987145 0.91715,1.120954 1.80032,2.326829 0.90016,1.188891 1.68143,2.343813 0.79826,1.154922 1.34175,2.055083 v -8.71287 h 1.6135 v 11.770017 z" />
        <path
           inkscape:connector-curvature="0"
           id="path971"
           style="font-style:normal;font-variant:normal;font-weight:normal;font-stretch:normal;font-family:UBUNTU;-inkscape-font-specification:UBUNTU;fill:white;stroke-width:0.42460382"
           d="m -223.74016,66.245645 q -1.23984,0 -2.25889,-0.407619 -1.01905,-0.40762 -1.74937,-1.188891 -0.73031,-0.781271 -1.13793,-1.919209 -0.39064,-1.154923 -0.39064,-2.632544 0,-1.477621 0.44159,-2.615559 0.45857,-1.154923 1.22286,-1.936194 0.76428,-0.78127 1.78333,-1.18889 1.01905,-0.40762 2.17398,-0.40762 0.73031,0 1.30778,0.101905 0.59444,0.101905 1.01904,0.237778 0.44159,0.135873 0.71334,0.271747 0.27174,0.135873 0.37365,0.20381 l -0.47556,1.358732 q -0.15285,-0.101905 -0.44158,-0.220794 -0.28873,-0.118889 -0.66239,-0.237778 -0.35666,-0.11889 -0.79825,-0.186826 -0.42461,-0.08492 -0.86619,-0.08492 -0.93413,0 -1.68143,0.322699 -0.74731,0.322699 -1.27382,0.934128 -0.5265,0.61143 -0.81523,1.494606 -0.27175,0.866191 -0.27175,1.953177 0,1.053018 0.23778,1.919209 0.25476,0.866192 0.7473,1.494606 0.49254,0.611429 1.22286,0.951112 0.7473,0.339683 1.73238,0.339683 1.13794,0 1.88524,-0.237778 0.74731,-0.237778 1.12096,-0.424604 l 0.4246,1.358732 q -0.11889,0.08492 -0.4246,0.220794 -0.30572,0.11889 -0.76429,0.237779 -0.45857,0.118889 -1.07,0.203809 -0.61143,0.08492 -1.32477,0.08492 z" />
        <path
           inkscape:connector-curvature="0"
           id="path973"
           style="font-style:normal;font-variant:normal;font-weight:normal;font-stretch:normal;font-family:UBUNTU;-inkscape-font-specification:UBUNTU;fill:white;stroke-width:0.42460382"
           d="m -218.28585,65.990883 v -11.770017 h 7.18429 v 1.409684 h -5.53683 v 3.498736 h 4.9254 v 1.375716 h -4.9254 v 4.076196 h 5.96144 v 1.409685 z" />
        <path
           inkscape:connector-curvature="0"
           id="path975"
           style="font-style:normal;font-variant:normal;font-weight:normal;font-stretch:normal;font-family:UBUNTU;-inkscape-font-specification:UBUNTU;fill:white;stroke-width:0.42460382"
           d="m -198.93559,60.097382 q 0,1.528574 -0.47556,2.666512 -0.47555,1.120954 -1.34175,1.868257 -0.86619,0.730318 -2.07206,1.10397 -1.20588,0.356667 -2.64953,0.356667 -0.71333,0 -1.57953,-0.06794 -0.8492,-0.05095 -1.54555,-0.220794 v -11.41335 q 0.69635,-0.169841 1.54555,-0.220794 0.8662,-0.06794 1.57953,-0.06794 1.44365,0 2.64953,0.373651 1.20587,0.356667 2.07206,1.10397 0.8662,0.730318 1.34175,1.868256 0.47556,1.120955 0.47556,2.649528 z m -6.40303,4.551753 q 2.34382,0 3.49874,-1.188891 1.15492,-1.205875 1.15492,-3.362862 0,-2.156987 -1.15492,-3.345878 -1.15492,-1.205875 -3.49874,-1.205875 -0.69635,0 -1.08698,0.01699 -0.37365,0.01698 -0.52651,0.03397 v 9.0016 q 0.15286,0.01699 0.52651,0.03397 0.39063,0.01698 1.08698,0.01698 z" />
        <path
           inkscape:connector-curvature="0"
           id="path977"
           style="font-style:normal;font-variant:normal;font-weight:normal;font-stretch:normal;font-family:UBUNTU;-inkscape-font-specification:UBUNTU;fill:white;stroke-width:0.42460382"
           d="m -189.40138,66.092788 q -0.35667,0 -0.78127,-0.01698 -0.40762,-0.01699 -0.83223,-0.05095 -0.40762,-0.03397 -0.81524,-0.08492 -0.40762,-0.05095 -0.7473,-0.135873 v -11.41335 q 0.33968,-0.08492 0.7473,-0.135873 0.40762,-0.05095 0.81524,-0.08492 0.42461,-0.03397 0.83223,-0.05095 0.40762,-0.01698 0.76428,-0.01698 1.01905,0 1.90223,0.152857 0.90016,0.152857 1.54556,0.526509 0.66238,0.356667 1.03603,0.951112 0.37365,0.594445 0.37365,1.460637 0,0.968097 -0.45857,1.59651 -0.45857,0.61143 -1.22286,0.917145 1.03603,0.305714 1.64746,0.968096 0.61143,0.662382 0.61143,1.868257 0,1.766352 -1.30778,2.666512 -1.29079,0.883176 -4.11016,0.883176 z m -1.54556,-5.587786 v 4.144133 q 0.18683,0.01698 0.44159,0.03397 0.22079,0.01698 0.50952,0.03397 0.30572,0 0.69635,0 0.73032,0 1.37572,-0.08492 0.66238,-0.101905 1.15492,-0.339683 0.49254,-0.237778 0.78127,-0.662382 0.30572,-0.424604 0.30572,-1.070002 0,-0.577461 -0.2208,-0.968096 -0.22079,-0.40762 -0.64539,-0.645398 -0.40762,-0.237778 -0.98509,-0.339683 -0.57746,-0.101905 -1.29079,-0.101905 z m 0,-1.324764 h 1.73238 q 0.61143,0 1.15493,-0.08492 0.54349,-0.08492 0.93412,-0.305715 0.40762,-0.220793 0.62842,-0.577461 0.23778,-0.356667 0.23778,-0.90016 0,-0.509524 -0.23778,-0.849207 -0.23778,-0.356667 -0.66238,-0.560477 -0.40762,-0.220794 -0.9681,-0.322699 -0.56048,-0.101905 -1.18889,-0.101905 -0.62841,0 -0.98508,0.01698 -0.35667,0.01698 -0.6454,0.05095 z" />
        <path
           inkscape:connector-curvature="0"
           id="path979"
           style="font-style:normal;font-variant:normal;font-weight:normal;font-stretch:normal;font-family:UBUNTU;-inkscape-font-specification:UBUNTU;fill:white;stroke-width:0.42460382"
           d="m -174.58138,64.564214 v 1.426669 h -7.0824 v -11.770017 h 1.64747 v 10.343348 z" />
        <path
           inkscape:connector-curvature="0"
           id="path981"
           style="font-style:normal;font-variant:normal;font-weight:normal;font-stretch:normal;font-family:UBUNTU;-inkscape-font-specification:UBUNTU;fill:white;stroke-width:0.42460382"
           d="m -174.07849,60.097382 q 0,-1.511589 0.44158,-2.666512 0.45858,-1.154922 1.22286,-1.919209 0.78127,-0.781271 1.80032,-1.171906 1.03604,-0.390636 2.19096,-0.390636 1.13794,0 2.14,0.390636 1.01905,0.390635 1.78334,1.171906 0.76428,0.764287 1.20587,1.919209 0.45857,1.154923 0.45857,2.666512 0,1.51159 -0.45857,2.666512 -0.44159,1.154922 -1.20587,1.936193 -0.76429,0.764287 -1.78334,1.154923 -1.00206,0.390635 -2.14,0.390635 -1.15492,0 -2.19096,-0.390635 -1.01905,-0.390636 -1.80032,-1.154923 -0.76428,-0.781271 -1.22286,-1.936193 -0.44158,-1.154922 -0.44158,-2.666512 z m 1.73238,0 q 0,1.070002 0.27174,1.953178 0.27175,0.866191 0.76429,1.477621 0.50953,0.611429 1.22286,0.951112 0.73032,0.322699 1.63048,0.322699 0.90016,0 1.61349,-0.322699 0.71334,-0.339683 1.20588,-0.951112 0.50952,-0.61143 0.78127,-1.477621 0.27175,-0.883176 0.27175,-1.953178 0,-1.070001 -0.27175,-1.936193 -0.27175,-0.883176 -0.78127,-1.494605 -0.49254,-0.61143 -1.20588,-0.934129 -0.71333,-0.339683 -1.61349,-0.339683 -0.90016,0 -1.63048,0.339683 -0.71333,0.322699 -1.22286,0.934129 -0.49254,0.611429 -0.76429,1.494605 -0.27174,0.866192 -0.27174,1.936193 z" />
        <path
           inkscape:connector-curvature="0"
           id="path983"
           style="font-style:normal;font-variant:normal;font-weight:normal;font-stretch:normal;font-family:UBUNTU;-inkscape-font-specification:UBUNTU;fill:white;stroke-width:0.42460382"
           d="m -153.21612,60.199287 h 1.64746 v 5.502865 q -0.20381,0.06794 -0.59444,0.152858 -0.37365,0.08492 -0.88318,0.169841 -0.49254,0.08492 -1.08698,0.135873 -0.59445,0.06794 -1.20588,0.06794 -1.23984,0 -2.25889,-0.40762 -1.01905,-0.407619 -1.74937,-1.18889 -0.73032,-0.781271 -1.13794,-1.919209 -0.39063,-1.137939 -0.39063,-2.61556 0,-1.477621 0.44159,-2.615559 0.45857,-1.154923 1.22285,-1.936194 0.76429,-0.78127 1.78334,-1.18889 1.03603,-0.40762 2.20794,-0.40762 0.79826,0 1.40968,0.101905 0.62842,0.101905 1.07001,0.237778 0.44158,0.135873 0.71333,0.271747 0.28873,0.135873 0.39064,0.20381 l -0.52651,1.375716 q -0.49254,-0.322699 -1.30778,-0.526509 -0.81524,-0.220794 -1.66445,-0.220794 -0.90016,0 -1.64746,0.322699 -0.73032,0.322699 -1.25683,0.934128 -0.50952,0.61143 -0.79825,1.494606 -0.28874,0.866191 -0.28874,1.953177 0,1.053018 0.23778,1.919209 0.25477,0.866192 0.74731,1.494606 0.50952,0.611429 1.23984,0.951112 0.7473,0.339683 1.74937,0.339683 0.71333,0 1.20587,-0.06794 0.50953,-0.08492 0.73032,-0.152858 z" />
      </g>
      <g
         transform="matrix(0.56622863,0,0,0.56622863,36.010519,161.70166)"
         id="text895"
         style="font-style:normal;font-variant:normal;font-weight:normal;font-stretch:normal;font-size:7.19230556px;line-height:1.25;font-family:comforta;-inkscape-font-specification:comforta;letter-spacing:0px;word-spacing:0px;fill:#999;fill-opacity:1;stroke:none;stroke-width:0.17980765"
         aria-label="DPNBLOG">
        <path
           inkscape:connector-curvature="0"
           id="path986"
           style="font-style:normal;font-variant:normal;font-weight:300;font-stretch:normal;font-family:UBUNTU;-inkscape-font-specification:'UBUNTU Light';fill:#999;stroke-width:0.17980765"
           d="m -231.00361,76.409055 q 0,0.640115 -0.20139,1.114807 -0.20138,0.474693 -0.56819,0.791154 -0.35962,0.316462 -0.86308,0.474692 -0.50346,0.158231 -1.10761,0.158231 -0.30208,0 -0.63293,-0.03596 -0.33084,-0.02877 -0.58257,-0.0935 v -4.80446 q 0.25173,-0.07192 0.58257,-0.100692 0.33085,-0.03596 0.63293,-0.03596 0.60415,0 1.10761,0.15823 0.50346,0.158231 0.86308,0.474692 0.36681,0.316462 0.56819,0.791154 0.20139,0.474692 0.20139,1.107615 z m -3.4667,2.064192 q 0.0432,0.0072 0.21577,0.02877 0.17981,0.02158 0.5682,0.02158 0.53942,0 0.94219,-0.143846 0.40277,-0.151039 0.67607,-0.424346 0.27331,-0.273308 0.40997,-0.661692 0.13665,-0.395577 0.13665,-0.884654 0,-0.489077 -0.13665,-0.877461 -0.13666,-0.388385 -0.40997,-0.661692 -0.2733,-0.273308 -0.67607,-0.417154 -0.40277,-0.151038 -0.94219,-0.151038 -0.38839,0 -0.5682,0.02158 -0.17261,0.02158 -0.21577,0.02877 z" />
        <path
           inkscape:connector-curvature="0"
           id="path988"
           style="font-style:normal;font-variant:normal;font-weight:300;font-stretch:normal;font-family:UBUNTU;-inkscape-font-specification:'UBUNTU Light';fill:#999;stroke-width:0.17980765"
           d="m -228.65769,73.877364 q 1.05727,0 1.57512,0.402769 0.51784,0.402769 0.51784,1.143576 0,0.424346 -0.15103,0.726423 -0.15104,0.294885 -0.43154,0.481885 -0.2805,0.179807 -0.69046,0.266115 -0.40277,0.07912 -0.91343,0.07912 h -0.67607 v 1.927538 h -0.48908 v -4.890768 q 0.25892,-0.07192 0.60415,-0.100692 0.35243,-0.03596 0.6545,-0.03596 z m 0.0216,0.424346 q -0.27331,0 -0.4675,0.02158 -0.187,0.01438 -0.32365,0.02877 v 2.200845 h 0.61854 q 0.39557,0 0.71203,-0.04315 0.32366,-0.05035 0.54662,-0.172615 0.23015,-0.129461 0.35242,-0.352423 0.12227,-0.222961 0.12227,-0.568192 0,-0.330846 -0.13665,-0.546615 -0.12946,-0.215769 -0.35243,-0.338039 -0.21577,-0.129461 -0.49626,-0.179807 -0.2805,-0.05035 -0.57539,-0.05035 z" />
        <path
           inkscape:connector-curvature="0"
           id="path990"
           style="font-style:normal;font-variant:normal;font-weight:300;font-stretch:normal;font-family:UBUNTU;-inkscape-font-specification:'UBUNTU Light';fill:#999;stroke-width:0.17980765"
           d="m -222.26519,78.904785 q -0.13665,-0.251731 -0.35242,-0.589769 -0.20858,-0.338038 -0.46031,-0.71923 -0.25173,-0.388385 -0.53223,-0.791154 -0.2805,-0.409961 -0.561,-0.791154 -0.27331,-0.388384 -0.53942,-0.726423 -0.25892,-0.338038 -0.4675,-0.582576 v 4.200306 h -0.48189 v -4.984268 h 0.38839 q 0.36681,0.409962 0.78396,0.949385 0.42435,0.53223 0.82712,1.09323 0.40276,0.553808 0.74799,1.086038 0.35243,0.532231 0.57539,0.927808 v -4.056461 h 0.48188 v 4.984268 z" />
        <path
           inkscape:connector-curvature="0"
           id="path992"
           style="font-style:normal;font-variant:normal;font-weight:300;font-stretch:normal;font-family:UBUNTU;-inkscape-font-specification:'UBUNTU Light';fill:#999;stroke-width:0.17980765"
           d="m -219.3668,78.947939 q -0.12227,0 -0.28769,-0.01439 -0.15823,-0.0072 -0.33085,-0.02877 -0.16542,-0.01438 -0.31646,-0.03596 -0.15104,-0.02877 -0.25892,-0.05754 v -4.797268 q 0.12946,-0.03596 0.28769,-0.05754 0.15823,-0.02877 0.32365,-0.04315 0.17262,-0.02158 0.33085,-0.02877 0.16542,-0.0072 0.30208,-0.0072 0.40276,0 0.76238,0.06473 0.36681,0.06473 0.64012,0.215769 0.2733,0.151039 0.43153,0.40277 0.16543,0.244538 0.16543,0.611346 0,0.402769 -0.20858,0.690461 -0.20138,0.2805 -0.54662,0.388384 0.21577,0.05035 0.39558,0.143847 0.17981,0.0935 0.31646,0.244538 0.13666,0.143846 0.20858,0.359615 0.0791,0.208577 0.0791,0.503462 0,0.704846 -0.56099,1.078845 -0.561,0.366808 -1.73335,0.366808 z m -0.70485,-2.430999 v 1.963499 q 0.10789,0.01438 0.32366,0.03596 0.21577,0.01438 0.43873,0.01438 0.33084,0 0.64011,-0.04315 0.31646,-0.04315 0.55381,-0.15823 0.23735,-0.115077 0.38119,-0.316462 0.14385,-0.201384 0.14385,-0.517846 0,-0.287692 -0.10069,-0.474692 -0.1007,-0.194192 -0.2877,-0.302077 -0.187,-0.115077 -0.4603,-0.15823 -0.26612,-0.04315 -0.59696,-0.04315 z m 0,-0.417154 h 0.94939 q 0.26611,0 0.50346,-0.03596 0.23735,-0.04315 0.40996,-0.143846 0.17981,-0.107884 0.2805,-0.2805 0.10069,-0.179807 0.10069,-0.453115 0,-0.244538 -0.10788,-0.409961 -0.10789,-0.172616 -0.30927,-0.2805 -0.19419,-0.107885 -0.4675,-0.151039 -0.27331,-0.05035 -0.60415,-0.05035 -0.26612,0 -0.45312,0.01439 -0.17981,0.01438 -0.30208,0.03596 z" />
        <path
           inkscape:connector-curvature="0"
           id="path994"
           style="font-style:normal;font-variant:normal;font-weight:300;font-stretch:normal;font-family:UBUNTU;-inkscape-font-specification:'UBUNTU Light';fill:#999;stroke-width:0.17980765"
           d="m -213.18962,78.480439 v 0.424346 h -2.83377 v -4.984268 h 0.48908 v 4.559922 z" />
        <path
           inkscape:connector-curvature="0"
           id="path996"
           style="font-style:normal;font-variant:normal;font-weight:300;font-stretch:normal;font-family:UBUNTU;-inkscape-font-specification:'UBUNTU Light';fill:#999;stroke-width:0.17980765"
           d="m -208.17838,76.409055 q 0,0.640115 -0.187,1.129192 -0.187,0.489077 -0.51066,0.819923 -0.31646,0.323654 -0.7408,0.489077 -0.42435,0.165423 -0.89904,0.165423 -0.47469,0 -0.89904,-0.165423 -0.42435,-0.165423 -0.748,-0.489077 -0.31646,-0.330846 -0.50346,-0.819923 -0.187,-0.489077 -0.187,-1.129192 0,-0.640115 0.187,-1.122 0.187,-0.489076 0.50346,-0.81273 0.32365,-0.330846 0.748,-0.496269 0.42435,-0.165423 0.89904,-0.165423 0.47469,0 0.89904,0.165423 0.42434,0.165423 0.7408,0.496269 0.32366,0.323654 0.51066,0.81273 0.187,0.481885 0.187,1.122 z m -0.51785,0 q 0,-0.503461 -0.12946,-0.899038 -0.12946,-0.402769 -0.36681,-0.683269 -0.23734,-0.2805 -0.57538,-0.424346 -0.33085,-0.151039 -0.748,-0.151039 -0.41716,0 -0.75519,0.151039 -0.33085,0.143846 -0.5682,0.424346 -0.23734,0.2805 -0.3668,0.683269 -0.12947,0.395577 -0.12947,0.899038 0,0.503462 0.12947,0.906231 0.12946,0.395576 0.3668,0.676076 0.23735,0.2805 0.5682,0.431539 0.33803,0.151038 0.75519,0.151038 0.41715,0 0.748,-0.151038 0.33804,-0.151039 0.57538,-0.431539 0.23735,-0.2805 0.36681,-0.676076 0.12946,-0.402769 0.12946,-0.906231 z" />
        <path
           inkscape:connector-curvature="0"
           id="path998"
           style="font-style:normal;font-variant:normal;font-weight:300;font-stretch:normal;font-family:UBUNTU;-inkscape-font-specification:'UBUNTU Light';fill:#999;stroke-width:0.17980765"
           d="m -203.98212,76.545709 h 0.48907 v 2.222422 q -0.13665,0.05754 -0.53942,0.143846 -0.39557,0.0935 -0.97815,0.0935 -0.48908,0 -0.90623,-0.172615 -0.41716,-0.172615 -0.72643,-0.496269 -0.30207,-0.330846 -0.47469,-0.812731 -0.17261,-0.489076 -0.17261,-1.114807 0,-0.62573 0.187,-1.107615 0.187,-0.489077 0.50346,-0.81273 0.32365,-0.330847 0.748,-0.503462 0.42434,-0.172615 0.90623,-0.172615 0.55381,0 0.91342,0.122269 0.35962,0.115077 0.52504,0.222961 l -0.16542,0.417154 q -0.20139,-0.143846 -0.54662,-0.230154 -0.34523,-0.0935 -0.748,-0.0935 -0.374,0 -0.70484,0.136654 -0.33085,0.136654 -0.57539,0.409962 -0.24454,0.273307 -0.38838,0.676076 -0.13666,0.40277 -0.13666,0.935 0,0.496269 0.11508,0.899038 0.11508,0.395577 0.34523,0.683269 0.23735,0.2805 0.58258,0.431539 0.34523,0.151038 0.79834,0.151038 0.36681,0 0.61135,-0.03596 0.25173,-0.04315 0.33804,-0.07912 z" />
      </g>
    </g>
  </g>
</svg>
